<?xml version="1.0" encoding="UTF-8" standalone="no"?>
<svg
   xmlns:dc="http://purl.org/dc/elements/1.1/"
   xmlns:cc="http://creativecommons.org/ns#"
   xmlns:rdf="http://www.w3.org/1999/02/22-rdf-syntax-ns#"
   xmlns:svg="http://www.w3.org/2000/svg"
   xmlns="http://www.w3.org/2000/svg"
   xmlns:sodipodi="http://sodipodi.sourceforge.net/DTD/sodipodi-0.dtd"
   xmlns:inkscape="http://www.inkscape.org/namespaces/inkscape"
   version="1.1"
   id="Layer_1"
   x="0px"
   y="0px"
   width="300"
   height="218.33998"
   viewBox="0 0 300 218.33998"
   enable-background="new 0 0 38 38"
   xml:space="preserve"
   sodipodi:docname="lotos-green.svg"
   inkscape:version="1.0.1 (3bc2e813f5, 2020-09-07)"><metadata
   id="metadata9"><rdf:RDF><cc:Work
       rdf:about=""><dc:format>image/svg+xml</dc:format><dc:type
         rdf:resource="http://purl.org/dc/dcmitype/StillImage" /><dc:title></dc:title></cc:Work></rdf:RDF></metadata><defs
   id="defs7" /><sodipodi:namedview
   pagecolor="#ffffff"
   bordercolor="#666666"
   borderopacity="1"
   objecttolerance="10"
   gridtolerance="10"
   guidetolerance="10"
   inkscape:pageopacity="0"
   inkscape:pageshadow="2"
   inkscape:window-width="1920"
   inkscape:window-height="986"
   id="namedview5"
   showgrid="false"
   inkscape:pagecheckerboard="true"
   fit-margin-top="0"
   fit-margin-left="0"
   fit-margin-right="0"
   fit-margin-bottom="0"
   inkscape:zoom="1.6633333"
   inkscape:cx="220.17162"
   inkscape:cy="118.95595"
   inkscape:window-x="-11"
   inkscape:window-y="-11"
   inkscape:window-maximized="1"
   inkscape:current-layer="Layer_1"
   inkscape:document-rotation="0" />
<path
   fill="none"
   stroke="#231f20"
   stroke-width="15.7895"
   stroke-miterlimit="10"
   d="m 300,178.86629 c -71.05263,0 -66.71842,31.57895 -150,31.57895 -83.273684,0 -78.947368,-31.57895 -150,-31.57895 m 197.36842,-57.23684 c 0,-42.007902 -20.77105,-73.436849 -47.36842,-108.552639 -26.58947,35.11579 -47.36842,66.544737 -47.36842,108.552639 0,30.09473 16.31842,57.23684 47.36842,57.23684 31.04211,0 47.36842,-27.14211 47.36842,-57.23684 z M 125.98421,98.600496 C 104.57368,76.218917 63.126316,68.339969 16.634211,68.339969 c 13.294736,40.586851 22.113157,71.597371 53.273684,91.776321 24.268421,15.71842 44.897365,18.75 80.092105,18.75 0,-37.16842 -0.35526,-55.53947 -24.01579,-80.265794 z M 150,178.86629 c 35.19474,0 55.82368,-3.03158 80.1,-18.75 31.15263,-20.17895 39.97105,-51.18947 53.26579,-91.776321 -46.49211,0 -87.93158,7.878948 -109.35,30.260527 C 150.35526,123.32682 150,141.69787 150,178.86629 Z M 122.88158,52.550496 C 108.68684,39.232075 96.963158,31.337338 71.052632,20.971548 v 51.963158 m 157.886838,0 V 20.971548 c -25.91052,10.36579 -37.6421,18.260527 -51.82894,31.578948"
   id="path2"
   style="stroke:#588555;stroke-opacity:1" />
</svg>
